<svg version="1.0" xmlns="http://www.w3.org/2000/svg" preserveAspectRatio="xMidYMid meet" viewBox="0 0 360.184 97.406" width="360.184" height="97.406" style="enable-background:new 0 0 360.184 97.406" xml:space="preserve"><path d="M69.373 41.691H39.105c-.781 0-1.414.634-1.414 1.415v14.798c0 .78.633 1.416 1.414 1.416h11.808v18.385s-2.651.904-9.98.904c-8.648 0-20.728-3.16-20.728-29.724 0-26.569 12.579-30.065 24.388-30.065 10.223 0 14.627 1.8 17.429 2.667.881.27 1.695-.607 1.695-1.388l3.376-14.298c0-.366-.124-.806-.54-1.105C65.414 3.885 58.472 0 40.933 0 20.726 0 0 8.597 0 49.922c0 41.326 23.73 47.484 43.727 47.484 16.557 0 26.602-7.075 26.602-7.075.414-.229.458-.808.458-1.072V43.106c0-.781-.633-1.415-1.414-1.415zM225.356 4.952a1.41 1.41 0 0 0-1.405-1.423h-17.042c-.778 0-1.411.636-1.411 1.423l.005 32.935h-26.565V4.952c0-.787-.626-1.423-1.406-1.423H160.49c-.776 0-1.408.636-1.408 1.423v89.177a1.42 1.42 0 0 0 1.408 1.428h17.042c.779 0 1.406-.641 1.406-1.428V55.984h26.565l-.047 38.145a1.42 1.42 0 0 0 1.411 1.428h17.083c.78 0 1.404-.641 1.406-1.428V4.952zM101.532 16.654c0-6.137-4.92-11.095-10.99-11.095-6.063 0-10.987 4.958-10.987 11.095 0 6.13 4.923 11.103 10.987 11.103 6.07-.001 10.99-4.973 10.99-11.103zM100.313 75.317V34.152c0-.781-.63-1.42-1.41-1.42H81.915c-.779 0-1.477.804-1.477 1.585v58.977c0 1.732 1.08 2.248 2.478 2.248h15.306c1.68 0 2.091-.825 2.091-2.276V75.317zM290.124 32.867h-16.911c-.776 0-1.407.639-1.407 1.426V78.02s-4.297 3.143-10.395 3.143-7.716-2.767-7.716-8.737V34.294c0-.787-.63-1.426-1.406-1.426h-17.164a1.42 1.42 0 0 0-1.409 1.426v41.02c0 17.734 9.884 22.073 23.481 22.073 11.155 0 20.149-6.163 20.149-6.163s.429 3.248.622 3.633.698.772 1.244.772l10.919-.048c.774 0 1.409-.641 1.409-1.425l-.006-59.863a1.418 1.418 0 0 0-1.41-1.426zM336.346 30.863c-9.604 0-16.138 4.286-16.138 4.286V4.952c0-.787-.63-1.423-1.406-1.423h-17.091c-.777 0-1.408.636-1.408 1.423v89.177a1.42 1.42 0 0 0 1.41 1.428h11.857c.534 0 .938-.276 1.237-.758.295-.479.72-4.111.72-4.111s6.988 6.622 20.218 6.622c15.531 0 24.438-7.878 24.438-35.366.001-27.488-14.225-31.081-23.837-31.081zm-6.67 50.245c-5.866-.179-9.845-2.841-9.845-2.841v-28.24s3.925-2.406 8.741-2.836c6.09-.545 11.958 1.294 11.958 15.822 0 15.319-2.648 18.342-10.854 18.095zM149.293 32.725H136.51l-.019-16.889c0-.64-.33-.959-1.069-.959h-17.42c-.677 0-1.041.298-1.041.949v17.452s-8.731 2.107-9.321 2.278c-.587.17-1.02.712-1.02 1.359v10.967c0 .789.63 1.425 1.409 1.425h8.932v26.384c0 19.597 13.746 21.521 23.021 21.521 4.238 0 9.308-1.361 10.146-1.67.506-.186.8-.711.8-1.279l.014-12.064a1.44 1.44 0 0 0-1.413-1.424c-.745 0-2.651.304-4.613.304-6.279 0-8.407-2.919-8.407-6.699l-.001-25.073h12.785c.779 0 1.411-.636 1.411-1.425V34.146c0-.788-.631-1.421-1.411-1.421z"/></svg>