<svg xmlns="http://www.w3.org/2000/svg" viewBox="0 0 149.081 150.05" width="149.081" height="150.05" style="enable-background:new 0 0 149.081 150.05" xml:space="preserve"><path style="fill:#eabe2f" d="M62.421 5.294c6.75-7 16-6.5 21-1.75s58.5 57.25 63 62.5 2.75 13.75-1.25 18.5-56.25 57-61 61.5-11.5 5.5-17.25 1.5-57.75-56.25-63.25-62.25-4.25-15.25 0-20 58.75-60 58.75-60z"/><path style="stroke:#000;stroke-miterlimit:10" d="M46.421 37.544s-2.25 13.5 11.75 9.875c5.875 6.125 20.375 23.75 20.375 23.75s-6.125 12 8.375 11.5c-2.875-4-4-6.625-4-6.625s1.375-3.25 5.375-3.5c2.125 2.25 5.25 6.625 5.25 6.625s6.375-12.875-7.75-12.25c-5.375-5.75-21.625-24-21.625-24s3.125-12.25-11.625-10.875l6.25 6s-2.375 3.5-5.25 4c-2.125-1.5-7.125-4.5-7.125-4.5z"/><path style="stroke:#000;stroke-miterlimit:10" d="m46.288 76.544 18.883-17.5 5.463 6.375-16.713 17.265s-6.641-2.89-7.633-6.14zM74.421 51.419s.625-1 3.625-1.5c1.375-1.5 4.375-4.375 4.375-4.375v-5.5l-1.75-2s-1.75.25-3 .875c-1.125-.75-4.75-4.25-4.75-4.25l7.75-7.125 5 4.393s-1.25 1.607 0 2.232c1.125.625 2.875 1.5 2.875 1.5s21.875 8.899 11.25 23.375c-.375-4.875-5.625-11.375-7.25-11.375s-4.25 2.375-6.5 1.625c-.625 1.375-4.375 4.5-4.375 4.5s.625 1.032-2.25 3.516c-1.625-1.266-5-5.891-5-5.891zM5.671 97.669s.375-5.125 6-5.625 9.75 0 9.75 0 1.375.375 1.375 1.375v4.25s0 1.25-1.375 1.125-7.188.009-7.188.009-1.438-.009-1.438 1.116v8.75s.25.875 1.438.875h7.938s.625.25.625 1.375v3.875s-.125 1.25-1.5 1.125-11.875.009-11.875.009-3.5-.634-3.75-4.259 0-14 0-14zM46.288 105.044c-.008-1.25 0-1.875 0-1.875s-2.992-8-3.492-9.5-2.125-1.847-2.125-1.847-8-.278-9.25 0-1.5 2.097-1.5 2.097l-4 11.125s-.5 9.75 0 10.125 1.25.759 1.25.759 4.625.616 5.5 0 .51-.769.51-.769-.01-3.115-.01-4.115.625-1.125.625-1.125 3.75-.125 4.25.125.75 1 .75 1l.125 4.25.75.634s5-.009 5.75 0 .867-.884.867-.884.008-8.75 0-10zm-12.742-1.169 1.5-4.331s1.25-1.625 2.25 0 1.375 4.331 1.375 4.331h-5.125zM50.421 93.794s.125-2.194 1-1.972 4.625-.016 4.625-.016l7.625 7.488v-5.875s.125-1.694 1.375-1.597 4.625-.016 4.625-.016.927-.012.963 2.238 0 20.125 0 20.125.162 1.768-1.088 1.759-6 0-6 0v-5.134l-5.75-6.844v11.344s-.25.69-1 .908-5.875 0-5.875 0-.5-.533-.5-1.158v-21.25zM74.541 93.419s-.369-1.694 1.256-1.597 4.875 0 4.875 0 1.875.097 1.75 2.222.006 5.625.006 5.625l2.244 3.125 3.143-2.625v-7s-.268-1.444.857-1.347 5.375 0 5.375 0 .995.847.935 1.847 0 7.679 0 7.679l-5.935 8.571v5.25h-8.125v-5.25l-6.5-7.875.119-8.625zM118.796 95.919c0-2.625-2.375-4-4.25-4.097s-9.875-.153-11.839 0-4.411 1.847-4.411 5.472v14.5c0 2.625 3.375 4.125 4.411 4.134s9.589-.259 12.089-.383 3.75-1 4-2.625 0-14.376 0-17.001zm-7.125 13.25s-.5.875-1.375 1-2.375.625-3.5 0-.5-1.125-.75-1.5 0-9.847 0-9.847c1.375-1.278 4.75-1.347 5.625 0v10.347zM122.671 93.419c.625-1 1.125-1.601 1.625-1.613s5.125 0 5.125 0c1.5.363 1.25 1.613 1.25 1.613l.016 15.25c.609 1.125 1.234 1 1.234 1l3.25.004c.875-.129.625-1.379.625-1.379l.033-15.125c.467-1.625 1.342-1.368 1.342-1.368l5.125.021c1.625.597 1 1.597 1 1.597l.118 18.375c-1.243 3.25-2.743 4.065-5.243 4.408s-10.125-.265-11.5-.274-4-2.384-4-4.634V93.419z"/><path style="stroke:#000;stroke-miterlimit:10" d="M18.671 118.044s-.024-1.293 1.625-1.738 14.03-.008 14.03-.008c1.595.496 1.669.777 1.669.777v4.844c-.574 1.125-1.324.75-1.324.75l-8.375.06v3.315h5.875a3.06 3.06 0 0 1 1.375 1.375v3.75c-.375.875-1.5 1.5-1.5 1.5h-5.75v6.875c-.625 1.375-1.25.875-1.25.875l-5.25.089c-1.125-.839-1.125-1.714-1.125-1.714v-20.75zM38.671 117.544c.75-1 1.625-1.246 1.625-1.246l14.125.008c1.375.613 1.125 1.238 1.125 1.238l.018 4.375c-.268.75-.893 1-.893 1h-3.625v11h4.518v5.625c-.393.75-1.018.964-1.018.964h-14.25c-1.25.286-1.625-.339-1.625-.964v-5.125c.375-.625 1.125-.75 1.125-.75h3.125l.125-11.125-4.375.125v-5.125zM58.461 117.544c.71-.875 1.46-1.238 1.46-1.238h6c.625.613.875 1.238.875 1.238v3.375l2.625 2.875 2.75-3v-3.375c.125-.75.75-1.113.75-1.113h5.875c1.375.613.75 1.113.75 1.113l.142 5.25-4.142 5.125 4.142 5.125v6.5c-.392 1-1.267 1.089-1.267 1.089h-5.5l-.75-.589-.25-5.125-2.847-3.125-2.528 2.75v5.5l-.25.875-6.375-.286-.875-1.089v-7l4-4.112-4.585-5.263v-5.5zM83.838 117.877c.25-1.25 1.417-1.676 1.417-1.676l6.25.097 4.5 6.913 3.667-6.905 7-.104c.583.342 1 1.259 1 1.259v21.833c-.417.833-.917 1.214-.917 1.214h-5.583c-1.167-.547-1.083-.714-1.5-1.214s.25-10.987.25-10.987l-2.75 3.737c-1.833 1.75-2.583.75-3.5-.417s-2.167-3.32-2.167-3.32v10.904c-.25.5-1.333 1.297-1.333 1.297l-5.469.071c-.781-.285-.865-1.452-.865-1.452v-21.25zM112.088 117.711c.25-.917.75-1.413.75-1.413l16.167.008c.833.488 1.083 1.405 1.083 1.405v4.25c-.417.583-1 .667-1 .667h-9.583v2.25h6.417c1 .167 1.25.917 1.25.917v4.417c-.333.833-1.167 1.083-1.167 1.083h-6.333v2.417h9c1 .333 1.417 1.083 1.417 1.083v4.333c-.5.833-1.333 1-1.333 1l-15.583.38c-.5-.297-1.083-1.297-1.083-1.297v-21.5z"/></svg>